# xmcd CD database file
#
# Track frame offsets:
#	150
#	9124
#	19648
#	25209
#	40148
#	45506
#	68867
#	77270
#	97459
#	104914
#	114964
#	123716
#	143591
#	161056
#	178729
#	187692
#	203067
#	214359
#	222009
#	233972
#
# Disc length: 3402 seconds
#
# Revision: 0
# Processed by: cddbd v1.5.2PL0 Copyright (c) Steve Scherf et al.
# Submitted via: CDex 1.70beta2
#
DISCID=100d4814
DTITLE=Rodach Michael - Fragmentary Blues (& David Moss)
DYEAR=2004
DGENRE=Jazz
TTITLE0=Fragmentary Blues
TTITLE1=Boys
TTITLE2=Story Time
TTITLE3=Blues For Tango
TTITLE4=Wittgenstein Blues
TTITLE5=No Way, Ohhh!
TTITLE6=Is That My Bizness?
TTITLE7=Down Deep
TTITLE8=Light Sweet Crude
TTITLE9=Working
TTITLE10=Gimme Gimme Blues
TTITLE11=Unmade Films
TTITLE12=A Question Of Doing It
TTITLE13=Fellini
TTITLE14=Say You Blues
TTITLE15=Song From Elsewhere
TTITLE16=Blue Loop Garou
TTITLE17=Just Don't Go
TTITLE18=omewhere In The South
TTITLE19=Highly Artificial Blues
EXTD=YEAR: 2004
EXTT0=
EXTT1=
EXTT2=
EXTT3=
EXTT4=
EXTT5=
EXTT6=
EXTT7=
EXTT8=
EXTT9=
EXTT10=
EXTT11=
EXTT12=
EXTT13=
EXTT14=
EXTT15=
EXTT16=
EXTT17=
EXTT18=
EXTT19=
PLAYORDER=
